<?xml version="1.0" encoding="UTF-8" standalone="no"?>
<!DOCTYPE svg PUBLIC "-//W3C//DTD SVG 1.1//EN"
 "http://www.w3.org/Graphics/SVG/1.1/DTD/svg11.dtd">
<!-- Generated by graphviz version 2.28.0 (20120228.1928)
 -->
<!-- Title: G Pages: 1 -->
<svg width="472pt" height="2832pt"
 viewBox="0.00 0.00 472.00 2832.00" xmlns="http://www.w3.org/2000/svg" xmlns:xlink="http://www.w3.org/1999/xlink">
<g id="graph1" class="graph" transform="scale(1 1) rotate(0) translate(4 2828)">
<title>G</title>
<polygon fill="white" stroke="white" points="-4,5 -4,-2828 469,-2828 469,5 -4,5"/>
<g id="graph2" class="cluster"><title>cluster_global</title>
<polyline fill="none" stroke="gray" points="36,-98 444,-98 "/>
<path fill="none" stroke="gray" d="M444,-98C450,-98 456,-104 456,-110"/>
<polyline fill="none" stroke="gray" points="456,-110 456,-2804 "/>
<path fill="none" stroke="gray" d="M456,-2804C456,-2810 450,-2816 444,-2816"/>
<polyline fill="none" stroke="gray" points="444,-2816 36,-2816 "/>
<path fill="none" stroke="gray" d="M36,-2816C30,-2816 24,-2810 24,-2804"/>
<polyline fill="none" stroke="gray" points="24,-2804 24,-110 "/>
<path fill="none" stroke="gray" d="M24,-110C24,-104 30,-98 36,-98"/>
<text text-anchor="middle" x="240" y="-2803.2" font-family="Times,serif" font-size="11.00" fill="gray">global</text>
</g>
<!-- \\contact -->
<g id="node2" class="node"><title>\\contact</title>
<a xlink:href="examples.db_driver_tests.common.tests.contact.class.html" xlink:title="contact" target="_parent">
<polygon fill="none" stroke="black" points="397,-952 333,-952 333,-916 397,-916 397,-952"/>
<text text-anchor="middle" x="365" y="-931.2" font-family="Courier,monospace" font-size="11.00">contact</text>
</a>
</g>
<!-- \\database_interface_object -->
<g id="node59" class="node"><title>\\database_interface_object</title>
<ellipse fill="none" stroke="black" cx="105" cy="-72" rx="104.782" ry="18"/>
<text text-anchor="middle" x="105" y="-68.3" font-family="Times,serif" font-size="14.00" fill="gray">\database_interface_object</text>
</g>
<!-- \\contact&#45;&gt;\\database_interface_object -->
<g id="edge3" class="edge"><title>\\contact&#45;&gt;\\database_interface_object</title>
<path fill="none" stroke="black" d="M332.76,-931.911C315.064,-928.99 294.107,-922.266 282,-907 169.296,-764.894 330.32,-229.718 210,-94 207.735,-91.4452 205.254,-89.1448 202.601,-87.0753"/>
<polygon fill="none" stroke="black" points="204.445,-84.0994 194.165,-81.5362 200.603,-89.9507 204.445,-84.0994"/>
</g>
<!-- \\code_benchmark -->
<g id="node3" class="node"><title>\\code_benchmark</title>
<a xlink:href="framework.plugins.benchmark.inc.html" xlink:title="code_benchmark" target="_parent">
<polygon fill="none" stroke="black" points="420.5,-2734 309.5,-2734 309.5,-2698 420.5,-2698 420.5,-2734"/>
<text text-anchor="middle" x="365" y="-2713.2" font-family="Courier,monospace" font-size="11.00">code_benchmark</text>
</a>
</g>
<!-- \\server_side_validation -->
<g id="node4" class="node"><title>\\server_side_validation</title>
<a xlink:href="framework.plugins.ssv.class.html" xlink:title="server_side_validation" target="_parent">
<polygon fill="none" stroke="black" points="447.5,-2680 282.5,-2680 282.5,-2644 447.5,-2644 447.5,-2680"/>
<text text-anchor="middle" x="365" y="-2659.2" font-family="Courier,monospace" font-size="11.00">server_side_validation</text>
</a>
</g>
<!-- \\calendar -->
<g id="node5" class="node"><title>\\calendar</title>
<a xlink:href="framework.plugins.calendar.inc.html" xlink:title="«abstract»&lt;br/&gt;calendar" target="_parent">
<polygon fill="none" stroke="black" points="147.5,-2788 62.5,-2788 62.5,-2752 147.5,-2752 147.5,-2788"/>
<text text-anchor="start" x="71" y="-2773.7" font-family="Courier,monospace" font-size="11.00">«abstract»</text>
<text text-anchor="start" x="77.5" y="-2762.7" font-family="Courier,monospace" font-size="11.00">calendar</text>
</a>
</g>
<!-- \\month_calendar -->
<g id="node6" class="node"><title>\\month_calendar</title>
<a xlink:href="framework.plugins.calendar.inc.html" xlink:title="month_calendar" target="_parent">
<polygon fill="none" stroke="black" points="420.5,-2788 309.5,-2788 309.5,-2752 420.5,-2752 420.5,-2788"/>
<text text-anchor="middle" x="365" y="-2767.2" font-family="Courier,monospace" font-size="11.00">month_calendar</text>
</a>
</g>
<!-- \\month_calendar&#45;&gt;\\calendar -->
<g id="edge5" class="edge"><title>\\month_calendar&#45;&gt;\\calendar</title>
<path fill="none" stroke="black" d="M309.285,-2770C264.643,-2770 201.996,-2770 158.082,-2770"/>
<polygon fill="none" stroke="black" points="157.901,-2766.5 147.901,-2770 157.9,-2773.5 157.901,-2766.5"/>
</g>
<!-- \\message -->
<g id="node7" class="node"><title>\\message</title>
<a xlink:href="framework.app_logic.logic1.structure.message.class.html" xlink:title="message" target="_parent">
<polygon fill="none" stroke="black" points="397,-2626 333,-2626 333,-2590 397,-2590 397,-2626"/>
<text text-anchor="middle" x="365" y="-2605.2" font-family="Courier,monospace" font-size="11.00">message</text>
</a>
</g>
<!-- \\page -->
<g id="node8" class="node"><title>\\page</title>
<a xlink:href="framework.app_logic.logic1.structure.page.class.html" xlink:title="«abstract»&lt;br/&gt;page" target="_parent">
<polygon fill="none" stroke="black" points="147.5,-2599 62.5,-2599 62.5,-2563 147.5,-2563 147.5,-2599"/>
<text text-anchor="start" x="71" y="-2584.7" font-family="Courier,monospace" font-size="11.00">«abstract»</text>
<text text-anchor="start" x="91" y="-2573.7" font-family="Courier,monospace" font-size="11.00">page</text>
</a>
</g>
<!-- \\message&#45;&gt;\\page -->
<g id="edge7" class="edge"><title>\\message&#45;&gt;\\page</title>
<path fill="none" stroke="black" d="M332.879,-2604.74C289.531,-2600.21 210.411,-2591.93 158.013,-2586.44"/>
<polygon fill="none" stroke="black" points="158.218,-2582.95 147.908,-2585.39 157.49,-2589.91 158.218,-2582.95"/>
</g>
<!-- \\module -->
<g id="node9" class="node"><title>\\module</title>
<a xlink:href="framework.app_logic.logic1.structure.module.class.html" xlink:title="module" target="_parent">
<polygon fill="none" stroke="black" points="393.5,-2572 336.5,-2572 336.5,-2536 393.5,-2536 393.5,-2572"/>
<text text-anchor="middle" x="365" y="-2551.2" font-family="Courier,monospace" font-size="11.00">module</text>
</a>
</g>
<!-- \\module&#45;&gt;\\page -->
<g id="edge9" class="edge"><title>\\module&#45;&gt;\\page</title>
<path fill="none" stroke="black" d="M336.389,-2556.89C293.891,-2561.34 211.73,-2569.94 157.886,-2575.57"/>
<polygon fill="none" stroke="black" points="157.428,-2572.1 147.847,-2576.62 158.157,-2579.06 157.428,-2572.1"/>
</g>
<!-- \\nav -->
<g id="node10" class="node"><title>\\nav</title>
<a xlink:href="framework.app_logic.logic1.security.nav.class.html" xlink:title="nav" target="_parent">
<polygon fill="none" stroke="black" points="392,-2464 338,-2464 338,-2428 392,-2428 392,-2464"/>
<text text-anchor="middle" x="365" y="-2443.2" font-family="Courier,monospace" font-size="11.00">nav</text>
</a>
</g>
<!-- \\authentication -->
<g id="node11" class="node"><title>\\authentication</title>
<a xlink:href="framework.app_logic.logic1.security.authentication.class.html" xlink:title="authentication" target="_parent">
<polygon fill="none" stroke="black" points="420.5,-2410 309.5,-2410 309.5,-2374 420.5,-2374 420.5,-2410"/>
<text text-anchor="middle" x="365" y="-2389.2" font-family="Courier,monospace" font-size="11.00">authentication</text>
</a>
</g>
<!-- \\user_list -->
<g id="node12" class="node"><title>\\user_list</title>
<a xlink:href="framework.app_logic.logic1.security.user_list.class.html" xlink:title="user_list" target="_parent">
<polygon fill="none" stroke="black" points="403.5,-2356 326.5,-2356 326.5,-2320 403.5,-2320 403.5,-2356"/>
<text text-anchor="middle" x="365" y="-2335.2" font-family="Courier,monospace" font-size="11.00">user_list</text>
</a>
</g>
<!-- \\module_list -->
<g id="node13" class="node"><title>\\module_list</title>
<a xlink:href="framework.app_logic.logic1.security.module_list.class.html" xlink:title="module_list" target="_parent">
<polygon fill="none" stroke="black" points="410.5,-2302 319.5,-2302 319.5,-2266 410.5,-2266 410.5,-2302"/>
<text text-anchor="middle" x="365" y="-2281.2" font-family="Courier,monospace" font-size="11.00">module_list</text>
</a>
</g>
<!-- \\xml_nav -->
<g id="node14" class="node"><title>\\xml_nav</title>
<a xlink:href="framework.app_logic.logic1.security.xml_nav.class.html" xlink:title="xml_nav" target="_parent">
<polygon fill="none" stroke="black" points="397,-2248 333,-2248 333,-2212 397,-2212 397,-2248"/>
<text text-anchor="middle" x="365" y="-2227.2" font-family="Courier,monospace" font-size="11.00">xml_nav</text>
</a>
</g>
<!-- \\login -->
<g id="node15" class="node"><title>\\login</title>
<a xlink:href="framework.app_logic.logic1.security.login.class.html" xlink:title="login" target="_parent">
<polygon fill="none" stroke="black" points="392,-2194 338,-2194 338,-2158 392,-2158 392,-2194"/>
<text text-anchor="middle" x="365" y="-2173.2" font-family="Courier,monospace" font-size="11.00">login</text>
</a>
</g>
<!-- \\textbox -->
<g id="node16" class="node"><title>\\textbox</title>
<a xlink:href="framework.core.structure.forms.simple.textbox.class.html" xlink:title="textbox" target="_parent">
<polygon fill="none" stroke="black" points="397,-358 333,-358 333,-322 397,-322 397,-358"/>
<text text-anchor="middle" x="365" y="-337.2" font-family="Courier,monospace" font-size="11.00">textbox</text>
</a>
</g>
<!-- \\element -->
<g id="node64" class="node"><title>\\element</title>
<ellipse fill="none" stroke="black" cx="105" cy="-18" rx="41.6928" ry="18"/>
<text text-anchor="middle" x="105" y="-14.3" font-family="Times,serif" font-size="14.00" fill="gray">\element</text>
</g>
<!-- \\textbox&#45;&gt;\\element -->
<g id="edge47" class="edge"><title>\\textbox&#45;&gt;\\element</title>
<path fill="none" stroke="black" d="M332.887,-329.078C315.683,-324.688 295.183,-317.938 282,-304 197.248,-214.398 297.579,-122.842 210,-36 195.111,-21.2359 173.246,-14.2317 153.402,-11.7813"/>
<polygon fill="none" stroke="black" points="153.522,-8.27862 143.256,-10.898 152.915,-15.2522 153.522,-8.27862"/>
</g>
<!-- \\textbox&#45;&gt;\\element -->
<g id="edge11" class="edge"><title>\\textbox&#45;&gt;\\element</title>
<path fill="none" stroke="black" d="M332.887,-344.828C315.683,-342.688 295.183,-335.938 282,-322 197.248,-232.398 297.579,-140.842 210,-54 194.816,-38.9435 172.377,-31.9573 152.225,-28.0248"/>
<polygon fill="none" stroke="black" points="152.708,-24.5562 142.253,-26.269 151.494,-31.4501 152.708,-24.5562"/>
</g>
<!-- \\textarea -->
<g id="node17" class="node"><title>\\textarea</title>
<a xlink:href="framework.core.structure.forms.simple.textarea.class.html" xlink:title="textarea" target="_parent">
<polygon fill="none" stroke="black" points="400.5,-304 329.5,-304 329.5,-268 400.5,-268 400.5,-304"/>
<text text-anchor="middle" x="365" y="-283.2" font-family="Courier,monospace" font-size="11.00">textarea</text>
</a>
</g>
<!-- \\textarea&#45;&gt;\\element -->
<g id="edge41" class="edge"><title>\\textarea&#45;&gt;\\element</title>
<path fill="none" stroke="black" d="M329.142,-273.669C312.948,-269.176 294.546,-262.465 282,-250 210.813,-179.272 283.416,-104.412 210,-36 194.892,-21.9218 173.402,-14.9704 153.876,-12.3425"/>
<polygon fill="none" stroke="black" points="154.185,-8.85607 143.888,-11.3475 153.491,-15.8216 154.185,-8.85607"/>
</g>
<!-- \\textarea&#45;&gt;\\element -->
<g id="edge13" class="edge"><title>\\textarea&#45;&gt;\\element</title>
<path fill="none" stroke="black" d="M329.142,-289.907C312.948,-287.176 294.546,-280.465 282,-268 210.813,-197.272 283.416,-122.412 210,-54 194.356,-39.422 171.869,-32.4859 151.804,-28.4627"/>
<polygon fill="none" stroke="black" points="152.353,-25.0051 141.886,-26.6502 151.094,-31.891 152.353,-25.0051"/>
</g>
<!-- \\secret -->
<g id="node18" class="node"><title>\\secret</title>
<a xlink:href="framework.core.structure.forms.simple.secret.class.html" xlink:title="secret" target="_parent">
<polygon fill="none" stroke="black" points="393.5,-898 336.5,-898 336.5,-862 393.5,-862 393.5,-898"/>
<text text-anchor="middle" x="365" y="-877.2" font-family="Courier,monospace" font-size="11.00">secret</text>
</a>
</g>
<!-- \\secret&#45;&gt;\\element -->
<g id="edge37" class="edge"><title>\\secret&#45;&gt;\\element</title>
<path fill="none" stroke="black" d="M336.387,-870.903C318.012,-866.877 294.95,-860.319 282,-844 169.945,-702.791 326.521,-173.546 210,-36 195.92,-19.3795 173.046,-12.3038 152.331,-10.3777"/>
<polygon fill="none" stroke="black" points="152.244,-6.86789 142.069,-9.82118 151.865,-13.8576 152.244,-6.86789"/>
</g>
<!-- \\secret&#45;&gt;\\element -->
<g id="edge15" class="edge"><title>\\secret&#45;&gt;\\element</title>
<path fill="none" stroke="black" d="M336.387,-886.022C318.012,-884.877 294.95,-878.319 282,-862 169.945,-720.791 326.521,-191.546 210,-54 196.178,-37.6839 173.881,-30.5662 153.471,-26.8726"/>
<polygon fill="none" stroke="black" points="153.763,-23.3751 143.338,-25.2658 152.666,-30.2888 153.763,-23.3751"/>
</g>
<!-- \\hidden -->
<g id="node19" class="node"><title>\\hidden</title>
<a xlink:href="framework.core.structure.forms.simple.hidden.class.html" xlink:title="hidden" target="_parent">
<polygon fill="none" stroke="black" points="393.5,-844 336.5,-844 336.5,-808 393.5,-808 393.5,-844"/>
<text text-anchor="middle" x="365" y="-823.2" font-family="Courier,monospace" font-size="11.00">hidden</text>
</a>
</g>
<!-- \\hidden&#45;&gt;\\element -->
<g id="edge35" class="edge"><title>\\hidden&#45;&gt;\\element</title>
<path fill="none" stroke="black" d="M336.419,-816.877C318.059,-812.839 295.002,-806.278 282,-790 176.956,-658.483 319.203,-164.084 210,-36 195.919,-19.4848 173.157,-12.4043 152.512,-10.4387"/>
<polygon fill="none" stroke="black" points="152.463,-6.93048 142.282,-9.85969 152.068,-13.9193 152.463,-6.93048"/>
</g>
<!-- \\hidden&#45;&gt;\\element -->
<g id="edge17" class="edge"><title>\\hidden&#45;&gt;\\element</title>
<path fill="none" stroke="black" d="M336.419,-831.996C318.059,-830.839 295.002,-824.278 282,-808 176.956,-676.483 319.203,-182.084 210,-54 196.126,-37.7277 173.824,-30.6146 153.424,-26.9127"/>
<polygon fill="none" stroke="black" points="153.723,-23.4162 143.297,-25.3007 152.622,-30.3292 153.723,-23.4162"/>
</g>
<!-- \\checkbox -->
<g id="node20" class="node"><title>\\checkbox</title>
<a xlink:href="framework.core.structure.forms.simple.checkbox.class.html" xlink:title="checkbox" target="_parent">
<polygon fill="none" stroke="black" points="400.5,-790 329.5,-790 329.5,-754 400.5,-754 400.5,-790"/>
<text text-anchor="middle" x="365" y="-769.2" font-family="Courier,monospace" font-size="11.00">checkbox</text>
</a>
</g>
<!-- \\checkbox&#45;&gt;\\element -->
<g id="edge33" class="edge"><title>\\checkbox&#45;&gt;\\element</title>
<path fill="none" stroke="black" d="M329.125,-761.131C312.311,-756.934 293.37,-750.129 282,-736 85.927,-492.341 413.778,-273.252 210,-36 195.859,-19.5363 173.091,-12.4604 152.458,-10.4847"/>
<polygon fill="none" stroke="black" points="152.419,-6.9768 142.235,-9.89935 152.019,-13.9654 152.419,-6.9768"/>
</g>
<!-- \\checkbox&#45;&gt;\\element -->
<g id="edge19" class="edge"><title>\\checkbox&#45;&gt;\\element</title>
<path fill="none" stroke="black" d="M329.125,-777.231C312.311,-774.934 293.37,-768.129 282,-754 85.927,-510.341 413.778,-291.252 210,-54 196.067,-37.7784 173.759,-30.6706 153.37,-26.959"/>
<polygon fill="none" stroke="black" points="153.677,-23.4637 143.25,-25.3411 152.572,-30.376 153.677,-23.4637"/>
</g>
<!-- \\radio -->
<g id="node21" class="node"><title>\\radio</title>
<a xlink:href="framework.core.structure.forms.simple.radio.class.html" xlink:title="radio" target="_parent">
<polygon fill="none" stroke="black" points="392,-736 338,-736 338,-700 392,-700 392,-736"/>
<text text-anchor="middle" x="365" y="-715.2" font-family="Courier,monospace" font-size="11.00">radio</text>
</a>
</g>
<!-- \\radio&#45;&gt;\\element -->
<g id="edge43" class="edge"><title>\\radio&#45;&gt;\\element</title>
<path fill="none" stroke="black" d="M337.679,-709.072C319.176,-705.024 295.413,-698.524 282,-682 99.9328,-457.705 399.159,-254.348 210,-36 195.842,-19.6569 173.182,-12.5783 152.623,-10.5606"/>
<polygon fill="none" stroke="black" points="152.625,-7.05456 142.434,-9.95107 152.207,-14.0421 152.625,-7.05456"/>
</g>
<!-- \\radio&#45;&gt;\\element -->
<g id="edge21" class="edge"><title>\\radio&#45;&gt;\\element</title>
<path fill="none" stroke="black" d="M337.679,-724C319.176,-723.024 295.413,-716.524 282,-700 99.9328,-475.705 399.159,-272.348 210,-54 195.998,-37.8378 173.683,-30.7361 153.307,-27.0133"/>
<polygon fill="none" stroke="black" points="153.624,-23.5194 143.195,-25.3884 152.513,-30.4307 153.624,-23.5194"/>
</g>
<!-- \\input_image -->
<g id="node22" class="node"><title>\\input_image</title>
<a xlink:href="framework.core.structure.forms.simple.input_image.class.html" xlink:title="input_image" target="_parent">
<polygon fill="none" stroke="black" points="410.5,-682 319.5,-682 319.5,-646 410.5,-646 410.5,-682"/>
<text text-anchor="middle" x="365" y="-661.2" font-family="Courier,monospace" font-size="11.00">input_image</text>
</a>
</g>
<!-- \\input_image&#45;&gt;\\element -->
<g id="edge23" class="edge"><title>\\input_image&#45;&gt;\\element</title>
<path fill="none" stroke="black" d="M319.494,-650.325C305.514,-645.976 291.314,-639.357 282,-628 113.927,-423.054 384.552,-235.457 210,-36 195.76,-19.7281 173.093,-12.6562 152.55,-10.6246"/>
<polygon fill="none" stroke="black" points="152.564,-7.1191 142.371,-10.0064 152.14,-14.1062 152.564,-7.1191"/>
</g>
<!-- \\input_image&#45;&gt;\\element -->
<g id="edge45" class="edge"><title>\\input_image&#45;&gt;\\element</title>
<path fill="none" stroke="black" d="M319.494,-667.315C305.514,-663.976 291.314,-657.357 282,-646 113.927,-441.054 384.552,-253.457 210,-54 195.917,-37.9082 173.594,-30.8139 153.233,-27.0778"/>
<polygon fill="none" stroke="black" points="153.561,-23.5854 143.13,-25.4445 152.444,-30.4957 153.561,-23.5854"/>
</g>
<!-- \\file_upload -->
<g id="node23" class="node"><title>\\file_upload</title>
<a xlink:href="framework.core.structure.forms.simple.file_upload.class.html" xlink:title="file_upload" target="_parent">
<polygon fill="none" stroke="black" points="410.5,-628 319.5,-628 319.5,-592 410.5,-592 410.5,-628"/>
<text text-anchor="middle" x="365" y="-607.2" font-family="Courier,monospace" font-size="11.00">file_upload</text>
</a>
</g>
<!-- \\file_upload&#45;&gt;\\element -->
<g id="edge25" class="edge"><title>\\file_upload&#45;&gt;\\element</title>
<path fill="none" stroke="black" d="M319.144,-596.126C305.308,-591.771 291.286,-585.186 282,-574 127.906,-388.384 369.961,-216.584 210,-36 195.715,-19.8736 173.153,-12.8024 152.69,-10.7246"/>
<polygon fill="none" stroke="black" points="152.749,-7.22137 142.547,-10.0794 152.305,-14.2073 152.749,-7.22137"/>
</g>
<!-- \\file_upload&#45;&gt;\\element -->
<g id="edge39" class="edge"><title>\\file_upload&#45;&gt;\\element</title>
<path fill="none" stroke="black" d="M319.144,-613.147C305.308,-609.771 291.286,-603.186 282,-592 127.906,-406.384 369.961,-234.584 210,-54 195.821,-37.9931 173.487,-30.9076 153.145,-27.1554"/>
<polygon fill="none" stroke="black" points="153.486,-23.665 143.054,-25.5121 152.361,-30.574 153.486,-23.665"/>
</g>
<!-- \\submit -->
<g id="node24" class="node"><title>\\submit</title>
<a xlink:href="framework.core.structure.forms.simple.inc.html" xlink:title="submit" target="_parent">
<polygon fill="none" stroke="black" points="393.5,-574 336.5,-574 336.5,-538 393.5,-538 393.5,-574"/>
<text text-anchor="middle" x="365" y="-553.2" font-family="Courier,monospace" font-size="11.00">submit</text>
</a>
</g>
<!-- \\submit&#45;&gt;\\element -->
<g id="edge27" class="edge"><title>\\submit&#45;&gt;\\element</title>
<path fill="none" stroke="black" d="M336.29,-554.16C318.115,-551.427 295.328,-544.817 282,-529 141.865,-362.691 355.391,-206.735 210,-45 196.566,-30.0559 176.023,-22.9077 156.733,-19.6407"/>
<polygon fill="none" stroke="black" points="157.189,-16.1706 146.803,-18.2652 156.228,-23.1043 157.189,-16.1706"/>
</g>
<!-- \\button -->
<g id="node25" class="node"><title>\\button</title>
<a xlink:href="framework.core.structure.forms.simple.inc.html" xlink:title="button" target="_parent">
<polygon fill="none" stroke="black" points="393.5,-520 336.5,-520 336.5,-484 393.5,-484 393.5,-520"/>
<text text-anchor="middle" x="365" y="-499.2" font-family="Courier,monospace" font-size="11.00">button</text>
</a>
</g>
<!-- \\button&#45;&gt;\\element -->
<g id="edge29" class="edge"><title>\\button&#45;&gt;\\element</title>
<path fill="none" stroke="black" d="M336.381,-500.083C318.247,-497.315 295.471,-490.695 282,-475 155.795,-327.963 340.85,-187.918 210,-45 196.43,-30.1789 175.866,-23.0503 156.596,-19.7645"/>
<polygon fill="none" stroke="black" points="157.07,-16.2968 146.681,-18.3762 156.099,-23.2291 157.07,-16.2968"/>
</g>
<!-- \\form -->
<g id="node26" class="node"><title>\\form</title>
<a xlink:href="framework.core.structure.forms.form.class.html" xlink:title="form" target="_parent">
<polygon fill="none" stroke="black" points="392,-466 338,-466 338,-430 392,-430 392,-466"/>
<text text-anchor="middle" x="365" y="-445.2" font-family="Courier,monospace" font-size="11.00">form</text>
</a>
</g>
<!-- \\form&#45;&gt;\\element -->
<g id="edge31" class="edge"><title>\\form&#45;&gt;\\element</title>
<path fill="none" stroke="black" d="M337.67,-446.16C319.409,-443.453 295.95,-436.875 282,-421 169.685,-293.189 326.351,-169.147 210,-45 196.376,-30.4629 176.017,-23.3561 156.916,-20.01"/>
<polygon fill="none" stroke="black" points="157.182,-16.5123 146.784,-18.549 156.182,-23.4406 157.182,-16.5123"/>
</g>
<!-- \\cga -->
<g id="node27" class="node"><title>\\cga</title>
<a xlink:href="framework.core.structure.forms.complex.cga.class.html" xlink:title="cga" target="_parent">
<polygon fill="none" stroke="black" points="392,-2086 338,-2086 338,-2050 392,-2050 392,-2086"/>
<text text-anchor="middle" x="365" y="-2065.2" font-family="Courier,monospace" font-size="11.00">cga</text>
</a>
</g>
<!-- \\group_form_element -->
<g id="node30" class="node"><title>\\group_form_element</title>
<a xlink:href="framework.core.structure.forms.complex.cfe.class.html" xlink:title="«abstract»&lt;br/&gt;group_form_element" target="_parent">
<polygon fill="none" stroke="black" points="174.5,-2140 35.5,-2140 35.5,-2104 174.5,-2104 174.5,-2140"/>
<text text-anchor="start" x="71" y="-2125.7" font-family="Courier,monospace" font-size="11.00">«abstract»</text>
<text text-anchor="start" x="44" y="-2114.7" font-family="Courier,monospace" font-size="11.00">group_form_element</text>
</a>
</g>
<!-- \\cga&#45;&gt;\\group_form_element -->
<g id="edge49" class="edge"><title>\\cga&#45;&gt;\\group_form_element</title>
<path fill="none" stroke="black" d="M337.842,-2073.47C302.218,-2080.93 236.901,-2094.6 184.654,-2105.54"/>
<polygon fill="none" stroke="black" points="183.797,-2102.14 174.726,-2107.62 185.231,-2108.99 183.797,-2102.14"/>
</g>
<!-- \\sst -->
<g id="node28" class="node"><title>\\sst</title>
<a xlink:href="framework.core.structure.forms.complex.sst.class.html" xlink:title="sst" target="_parent">
<polygon fill="none" stroke="black" points="392,-2032 338,-2032 338,-1996 392,-1996 392,-2032"/>
<text text-anchor="middle" x="365" y="-2011.2" font-family="Courier,monospace" font-size="11.00">sst</text>
</a>
</g>
<!-- \\select_form_element -->
<g id="node29" class="node"><title>\\select_form_element</title>
<a xlink:href="framework.core.structure.forms.complex.cfe.class.html" xlink:title="«abstract»&lt;br/&gt;select_form_element" target="_parent">
<polygon fill="none" stroke="black" points="178,-1978 32,-1978 32,-1942 178,-1942 178,-1978"/>
<text text-anchor="start" x="71" y="-1963.7" font-family="Courier,monospace" font-size="11.00">«abstract»</text>
<text text-anchor="start" x="40.5" y="-1952.7" font-family="Courier,monospace" font-size="11.00">select_form_element</text>
</a>
</g>
<!-- \\sst&#45;&gt;\\select_form_element -->
<g id="edge51" class="edge"><title>\\sst&#45;&gt;\\select_form_element</title>
<path fill="none" stroke="black" d="M337.842,-2008.53C302.94,-2001.22 239.537,-1987.95 187.847,-1977.13"/>
<polygon fill="none" stroke="black" points="188.514,-1973.69 178.009,-1975.07 187.08,-1980.55 188.514,-1973.69"/>
</g>
<!-- \\select_form_element&#45;&gt;\\element -->
<g id="edge53" class="edge"><title>\\select_form_element&#45;&gt;\\element</title>
<path fill="none" stroke="black" d="M121.458,-1941.92C153.059,-1905.85 221.294,-1820.95 246,-1735 271.799,-1645.25 303.288,-127.753 246,-54 225.323,-27.3799 187.901,-18.7287 156.804,-16.5472"/>
<polygon fill="none" stroke="black" points="156.694,-13.0376 146.533,-16.0388 156.348,-20.029 156.694,-13.0376"/>
</g>
<!-- \\rgt -->
<g id="node31" class="node"><title>\\rgt</title>
<a xlink:href="framework.core.structure.forms.complex.rgt.class.html" xlink:title="rgt" target="_parent">
<polygon fill="none" stroke="black" points="392,-2518 338,-2518 338,-2482 392,-2482 392,-2518"/>
<text text-anchor="middle" x="365" y="-2497.2" font-family="Courier,monospace" font-size="11.00">rgt</text>
</a>
</g>
<!-- \\rgt&#45;&gt;\\group_form_element -->
<g id="edge55" class="edge"><title>\\rgt&#45;&gt;\\group_form_element</title>
<path fill="none" stroke="black" d="M337.775,-2496.69C320.263,-2493.3 297.658,-2486.51 282,-2473 177.876,-2383.13 128.555,-2216.89 112.331,-2150.48"/>
<polygon fill="none" stroke="black" points="115.641,-2149.27 109.925,-2140.35 108.83,-2150.89 115.641,-2149.27"/>
</g>
<!-- \\rga -->
<g id="node32" class="node"><title>\\rga</title>
<a xlink:href="framework.core.structure.forms.complex.rga.class.html" xlink:title="rga" target="_parent">
<polygon fill="none" stroke="black" points="392,-2140 338,-2140 338,-2104 392,-2104 392,-2140"/>
<text text-anchor="middle" x="365" y="-2119.2" font-family="Courier,monospace" font-size="11.00">rga</text>
</a>
</g>
<!-- \\rga&#45;&gt;\\group_form_element -->
<g id="edge57" class="edge"><title>\\rga&#45;&gt;\\group_form_element</title>
<path fill="none" stroke="black" d="M337.842,-2122C302.292,-2122 237.173,-2122 184.98,-2122"/>
<polygon fill="none" stroke="black" points="184.726,-2118.5 174.726,-2122 184.726,-2125.5 184.726,-2118.5"/>
</g>
<!-- \\ssa -->
<g id="node33" class="node"><title>\\ssa</title>
<a xlink:href="framework.core.structure.forms.complex.ssa.class.html" xlink:title="ssa" target="_parent">
<polygon fill="none" stroke="black" points="392,-1978 338,-1978 338,-1942 392,-1942 392,-1978"/>
<text text-anchor="middle" x="365" y="-1957.2" font-family="Courier,monospace" font-size="11.00">ssa</text>
</a>
</g>
<!-- \\ssa&#45;&gt;\\select_form_element -->
<g id="edge59" class="edge"><title>\\ssa&#45;&gt;\\select_form_element</title>
<path fill="none" stroke="black" d="M337.842,-1960C303.013,-1960 239.801,-1960 188.169,-1960"/>
<polygon fill="none" stroke="black" points="188.009,-1956.5 178.009,-1960 188.009,-1963.5 188.009,-1956.5"/>
</g>
<!-- \\table -->
<g id="node34" class="node"><title>\\table</title>
<a xlink:href="framework.core.structure.objects.table.class.html" xlink:title="table" target="_parent">
<polygon fill="none" stroke="black" points="392,-412 338,-412 338,-376 392,-376 392,-412"/>
<text text-anchor="middle" x="365" y="-391.2" font-family="Courier,monospace" font-size="11.00">table</text>
</a>
</g>
<!-- \\table&#45;&gt;\\element -->
<g id="edge61" class="edge"><title>\\table&#45;&gt;\\element</title>
<path fill="none" stroke="black" d="M337.817,-392.029C319.627,-389.259 296.193,-382.658 282,-367 183.515,-258.347 311.915,-150.443 210,-45 196.154,-30.6744 175.759,-23.6026 156.689,-20.2255"/>
<polygon fill="none" stroke="black" points="156.984,-16.7313 146.582,-18.742 155.967,-23.6571 156.984,-16.7313"/>
</g>
<!-- \\rs_list -->
<g id="node35" class="node"><title>\\rs_list</title>
<a xlink:href="framework.core.structure.objects.rs_list.class.html" xlink:title="rs_list" target="_parent">
<polygon fill="none" stroke="black" points="397,-1222 333,-1222 333,-1186 397,-1186 397,-1222"/>
<text text-anchor="middle" x="365" y="-1201.2" font-family="Courier,monospace" font-size="11.00">rs_list</text>
</a>
</g>
<!-- \\data_query -->
<g id="node36" class="node"><title>\\data_query</title>
<a xlink:href="framework.core.data_access.data_query.class.html" xlink:title="data_query" target="_parent">
<polygon fill="none" stroke="black" points="407,-1168 323,-1168 323,-1132 407,-1132 407,-1168"/>
<text text-anchor="middle" x="365" y="-1147.2" font-family="Courier,monospace" font-size="11.00">data_query</text>
</a>
</g>
<!-- \\dt_db2 -->
<g id="node37" class="node"><title>\\dt_db2</title>
<a xlink:href="framework.core.data_access.lib.data_trans.dt_db2.class.html" xlink:title="dt_db2" target="_parent">
<polygon fill="none" stroke="black" points="393.5,-1816 336.5,-1816 336.5,-1780 393.5,-1780 393.5,-1816"/>
<text text-anchor="middle" x="365" y="-1795.2" font-family="Courier,monospace" font-size="11.00">dt_db2</text>
</a>
</g>
<!-- \\dt_structure -->
<g id="node44" class="node"><title>\\dt_structure</title>
<a xlink:href="framework.core.data_access.lib.data_trans.dt_structure.class.html" xlink:title="«abstract»&lt;br/&gt;dt_structure" target="_parent">
<polygon fill="none" stroke="black" points="154.5,-1735 55.5,-1735 55.5,-1699 154.5,-1699 154.5,-1735"/>
<text text-anchor="start" x="71" y="-1720.7" font-family="Courier,monospace" font-size="11.00">«abstract»</text>
<text text-anchor="start" x="64" y="-1709.7" font-family="Courier,monospace" font-size="11.00">dt_structure</text>
</a>
</g>
<!-- \\dt_db2&#45;&gt;\\dt_structure -->
<g id="edge63" class="edge"><title>\\dt_db2&#45;&gt;\\dt_structure</title>
<path fill="none" stroke="black" d="M336.389,-1789.33C295.638,-1776.54 218.419,-1752.29 164.666,-1735.42"/>
<polygon fill="none" stroke="black" points="165.506,-1732.01 154.917,-1732.36 163.409,-1738.69 165.506,-1732.01"/>
</g>
<!-- \\dt_mysql -->
<g id="node38" class="node"><title>\\dt_mysql</title>
<a xlink:href="framework.core.data_access.lib.data_trans.dt_mysql.class.html" xlink:title="dt_mysql" target="_parent">
<polygon fill="none" stroke="black" points="400.5,-1762 329.5,-1762 329.5,-1726 400.5,-1726 400.5,-1762"/>
<text text-anchor="middle" x="365" y="-1741.2" font-family="Courier,monospace" font-size="11.00">dt_mysql</text>
</a>
</g>
<!-- \\dt_mysql&#45;&gt;\\dt_structure -->
<g id="edge65" class="edge"><title>\\dt_mysql&#45;&gt;\\dt_structure</title>
<path fill="none" stroke="black" d="M329.473,-1740.39C287.466,-1735.99 215.875,-1728.5 165.05,-1723.18"/>
<polygon fill="none" stroke="black" points="165.168,-1719.67 154.858,-1722.11 164.439,-1726.63 165.168,-1719.67"/>
</g>
<!-- \\dt_oracle -->
<g id="node39" class="node"><title>\\dt_oracle</title>
<a xlink:href="framework.core.data_access.lib.data_trans.dt_oracle.class.html" xlink:title="dt_oracle" target="_parent">
<polygon fill="none" stroke="black" points="403.5,-1708 326.5,-1708 326.5,-1672 403.5,-1672 403.5,-1708"/>
<text text-anchor="middle" x="365" y="-1687.2" font-family="Courier,monospace" font-size="11.00">dt_oracle</text>
</a>
</g>
<!-- \\dt_oracle&#45;&gt;\\dt_structure -->
<g id="edge67" class="edge"><title>\\dt_oracle&#45;&gt;\\dt_structure</title>
<path fill="none" stroke="black" d="M326.485,-1693.93C283.991,-1698.37 214.211,-1705.68 164.539,-1710.87"/>
<polygon fill="none" stroke="black" points="164.155,-1707.39 154.574,-1711.92 164.884,-1714.36 164.155,-1707.39"/>
</g>
<!-- \\dt_mysqli -->
<g id="node40" class="node"><title>\\dt_mysqli</title>
<a xlink:href="framework.core.data_access.lib.data_trans.dt_mysqli.class.html" xlink:title="dt_mysqli" target="_parent">
<polygon fill="none" stroke="black" points="403.5,-1654 326.5,-1654 326.5,-1618 403.5,-1618 403.5,-1654"/>
<text text-anchor="middle" x="365" y="-1633.2" font-family="Courier,monospace" font-size="11.00">dt_mysqli</text>
</a>
</g>
<!-- \\dt_mysqli&#45;&gt;\\dt_structure -->
<g id="edge69" class="edge"><title>\\dt_mysqli&#45;&gt;\\dt_structure</title>
<path fill="none" stroke="black" d="M326.485,-1647.78C283.902,-1661.15 213.919,-1683.12 164.228,-1698.72"/>
<polygon fill="none" stroke="black" points="163.066,-1695.42 154.574,-1701.75 165.163,-1702.09 163.066,-1695.42"/>
</g>
<!-- \\dt_mssql -->
<g id="node41" class="node"><title>\\dt_mssql</title>
<a xlink:href="framework.core.data_access.lib.data_trans.dt_mssql.class.html" xlink:title="dt_mssql" target="_parent">
<polygon fill="none" stroke="black" points="400.5,-1600 329.5,-1600 329.5,-1564 400.5,-1564 400.5,-1600"/>
<text text-anchor="middle" x="365" y="-1579.2" font-family="Courier,monospace" font-size="11.00">dt_mssql</text>
</a>
</g>
<!-- \\dt_mssql&#45;&gt;\\dt_structure -->
<g id="edge71" class="edge"><title>\\dt_mssql&#45;&gt;\\dt_structure</title>
<path fill="none" stroke="black" d="M329.406,-1591.44C314.513,-1595.99 297.093,-1602 282,-1609 229.832,-1633.19 173.94,-1669.47 139.472,-1693.19"/>
<polygon fill="none" stroke="black" points="137.41,-1690.36 131.186,-1698.93 141.399,-1696.11 137.41,-1690.36"/>
</g>
<!-- \\dt_pgsql -->
<g id="node42" class="node"><title>\\dt_pgsql</title>
<a xlink:href="framework.core.data_access.lib.data_trans.dt_pgsql.class.html" xlink:title="dt_pgsql" target="_parent">
<polygon fill="none" stroke="black" points="400.5,-1546 329.5,-1546 329.5,-1510 400.5,-1510 400.5,-1546"/>
<text text-anchor="middle" x="365" y="-1525.2" font-family="Courier,monospace" font-size="11.00">dt_pgsql</text>
</a>
</g>
<!-- \\dt_pgsql&#45;&gt;\\dt_structure -->
<g id="edge73" class="edge"><title>\\dt_pgsql&#45;&gt;\\dt_structure</title>
<path fill="none" stroke="black" d="M329.496,-1535.83C314.292,-1540.16 296.604,-1546.42 282,-1555 218.68,-1592.19 158.864,-1655.29 127.921,-1690.77"/>
<polygon fill="none" stroke="black" points="124.928,-1688.88 121.049,-1698.74 130.23,-1693.45 124.928,-1688.88"/>
</g>
<!-- \\dt_ldap -->
<g id="node43" class="node"><title>\\dt_ldap</title>
<a xlink:href="framework.core.data_access.lib.data_trans.dt_ldap.class.html" xlink:title="dt_ldap" target="_parent">
<polygon fill="none" stroke="black" points="397,-1924 333,-1924 333,-1888 397,-1888 397,-1924"/>
<text text-anchor="middle" x="365" y="-1903.2" font-family="Courier,monospace" font-size="11.00">dt_ldap</text>
</a>
</g>
<!-- \\dt_ldap&#45;&gt;\\dt_structure -->
<g id="edge75" class="edge"><title>\\dt_ldap&#45;&gt;\\dt_structure</title>
<path fill="none" stroke="black" d="M332.686,-1899.06C316.812,-1894.72 297.638,-1888.18 282,-1879 218.68,-1841.81 158.864,-1778.71 127.921,-1743.23"/>
<polygon fill="none" stroke="black" points="130.23,-1740.55 121.049,-1735.26 124.928,-1745.12 130.23,-1740.55"/>
</g>
<!-- \\dt_sqlsrv -->
<g id="node45" class="node"><title>\\dt_sqlsrv</title>
<a xlink:href="framework.core.data_access.lib.data_trans.dt_sqlsrv.class.html" xlink:title="dt_sqlsrv" target="_parent">
<polygon fill="none" stroke="black" points="403.5,-1870 326.5,-1870 326.5,-1834 403.5,-1834 403.5,-1870"/>
<text text-anchor="middle" x="365" y="-1849.2" font-family="Courier,monospace" font-size="11.00">dt_sqlsrv</text>
</a>
</g>
<!-- \\dt_sqlsrv&#45;&gt;\\dt_structure -->
<g id="edge77" class="edge"><title>\\dt_sqlsrv&#45;&gt;\\dt_structure</title>
<path fill="none" stroke="black" d="M326.148,-1841.55C312.014,-1837.13 296.005,-1831.49 282,-1825 229.832,-1800.81 173.94,-1764.53 139.472,-1740.81"/>
<polygon fill="none" stroke="black" points="141.399,-1737.89 131.186,-1735.07 137.41,-1743.64 141.399,-1737.89"/>
</g>
<!-- \\dr_structure -->
<g id="node46" class="node"><title>\\dr_structure</title>
<a xlink:href="framework.core.data_access.lib.data_result.dr_structure.class.html" xlink:title="«abstract»&lt;br/&gt;dr_structure" target="_parent">
<polygon fill="none" stroke="black" points="154.5,-1303 55.5,-1303 55.5,-1267 154.5,-1267 154.5,-1303"/>
<text text-anchor="start" x="71" y="-1288.7" font-family="Courier,monospace" font-size="11.00">«abstract»</text>
<text text-anchor="start" x="64" y="-1277.7" font-family="Courier,monospace" font-size="11.00">dr_structure</text>
</a>
</g>
<!-- \\dr_mssql -->
<g id="node47" class="node"><title>\\dr_mssql</title>
<a xlink:href="framework.core.data_access.lib.data_result.dr_mssql.class.html" xlink:title="dr_mssql" target="_parent">
<polygon fill="none" stroke="black" points="400.5,-1384 329.5,-1384 329.5,-1348 400.5,-1348 400.5,-1384"/>
<text text-anchor="middle" x="365" y="-1363.2" font-family="Courier,monospace" font-size="11.00">dr_mssql</text>
</a>
</g>
<!-- \\dr_mssql&#45;&gt;\\dr_structure -->
<g id="edge79" class="edge"><title>\\dr_mssql&#45;&gt;\\dr_structure</title>
<path fill="none" stroke="black" d="M329.473,-1355.16C287.291,-1341.92 215.277,-1319.31 164.415,-1303.34"/>
<polygon fill="none" stroke="black" points="165.447,-1300 154.858,-1300.34 163.35,-1306.67 165.447,-1300"/>
</g>
<!-- \\dr_mysqli -->
<g id="node48" class="node"><title>\\dr_mysqli</title>
<a xlink:href="framework.core.data_access.lib.data_result.dr_mysqli.class.html" xlink:title="dr_mysqli" target="_parent">
<polygon fill="none" stroke="black" points="403.5,-1330 326.5,-1330 326.5,-1294 403.5,-1294 403.5,-1330"/>
<text text-anchor="middle" x="365" y="-1309.2" font-family="Courier,monospace" font-size="11.00">dr_mysqli</text>
</a>
</g>
<!-- \\dr_mysqli&#45;&gt;\\dr_structure -->
<g id="edge81" class="edge"><title>\\dr_mysqli&#45;&gt;\\dr_structure</title>
<path fill="none" stroke="black" d="M326.485,-1308.07C283.991,-1303.63 214.211,-1296.32 164.539,-1291.13"/>
<polygon fill="none" stroke="black" points="164.884,-1287.64 154.574,-1290.08 164.155,-1294.61 164.884,-1287.64"/>
</g>
<!-- \\dr_oracle -->
<g id="node49" class="node"><title>\\dr_oracle</title>
<a xlink:href="framework.core.data_access.lib.data_result.dr_oracle.class.html" xlink:title="dr_oracle" target="_parent">
<polygon fill="none" stroke="black" points="403.5,-1276 326.5,-1276 326.5,-1240 403.5,-1240 403.5,-1276"/>
<text text-anchor="middle" x="365" y="-1255.2" font-family="Courier,monospace" font-size="11.00">dr_oracle</text>
</a>
</g>
<!-- \\dr_oracle&#45;&gt;\\dr_structure -->
<g id="edge83" class="edge"><title>\\dr_oracle&#45;&gt;\\dr_structure</title>
<path fill="none" stroke="black" d="M326.485,-1261.93C283.991,-1266.37 214.211,-1273.68 164.539,-1278.87"/>
<polygon fill="none" stroke="black" points="164.155,-1275.39 154.574,-1279.92 164.884,-1282.36 164.155,-1275.39"/>
</g>
<!-- \\dr_pgsql -->
<g id="node50" class="node"><title>\\dr_pgsql</title>
<a xlink:href="framework.core.data_access.lib.data_result.dr_pgsql.class.html" xlink:title="dr_pgsql" target="_parent">
<polygon fill="none" stroke="black" points="400.5,-1114 329.5,-1114 329.5,-1078 400.5,-1078 400.5,-1114"/>
<text text-anchor="middle" x="365" y="-1093.2" font-family="Courier,monospace" font-size="11.00">dr_pgsql</text>
</a>
</g>
<!-- \\dr_pgsql&#45;&gt;\\dr_structure -->
<g id="edge85" class="edge"><title>\\dr_pgsql&#45;&gt;\\dr_structure</title>
<path fill="none" stroke="black" d="M329.112,-1101.26C313.295,-1105.11 295.22,-1111.71 282,-1123 228.799,-1168.45 265.611,-1220.54 210,-1263 197.125,-1272.83 180.853,-1278.51 165.027,-1281.72"/>
<polygon fill="none" stroke="black" points="163.991,-1278.35 154.732,-1283.5 165.181,-1285.25 163.991,-1278.35"/>
</g>
<!-- \\dr_mysql -->
<g id="node51" class="node"><title>\\dr_mysql</title>
<a xlink:href="framework.core.data_access.lib.data_result.dr_mysql.class.html" xlink:title="dr_mysql" target="_parent">
<polygon fill="none" stroke="black" points="400.5,-1060 329.5,-1060 329.5,-1024 400.5,-1024 400.5,-1060"/>
<text text-anchor="middle" x="365" y="-1039.2" font-family="Courier,monospace" font-size="11.00">dr_mysql</text>
</a>
</g>
<!-- \\dr_mysql&#45;&gt;\\dr_structure -->
<g id="edge87" class="edge"><title>\\dr_mysql&#45;&gt;\\dr_structure</title>
<path fill="none" stroke="black" d="M329.309,-1046.38C313.154,-1050.03 294.737,-1056.73 282,-1069 215.767,-1132.81 279.629,-1202.92 210,-1263 197.446,-1273.83 180.892,-1279.77 164.694,-1282.92"/>
<polygon fill="none" stroke="black" points="164.006,-1279.48 154.693,-1284.53 165.123,-1286.39 164.006,-1279.48"/>
</g>
<!-- \\dr_sqlsrv -->
<g id="node52" class="node"><title>\\dr_sqlsrv</title>
<a xlink:href="framework.core.data_access.lib.data_result.dr_sqlsrv.class.html" xlink:title="dr_sqlsrv" target="_parent">
<polygon fill="none" stroke="black" points="403.5,-1006 326.5,-1006 326.5,-970 403.5,-970 403.5,-1006"/>
<text text-anchor="middle" x="365" y="-985.2" font-family="Courier,monospace" font-size="11.00">dr_sqlsrv</text>
</a>
</g>
<!-- \\dr_sqlsrv&#45;&gt;\\dr_structure -->
<g id="edge89" class="edge"><title>\\dr_sqlsrv&#45;&gt;\\dr_structure</title>
<path fill="none" stroke="black" d="M326.418,-992.553C310.81,-996.243 293.657,-1002.92 282,-1015 202.298,-1097.59 294.107,-1184.9 210,-1263 197.736,-1274.39 181.112,-1280.47 164.755,-1283.57"/>
<polygon fill="none" stroke="black" points="163.99,-1280.15 154.646,-1285.14 165.064,-1287.07 163.99,-1280.15"/>
</g>
<!-- \\dr_db2 -->
<g id="node53" class="node"><title>\\dr_db2</title>
<a xlink:href="framework.core.data_access.lib.data_result.dr_db2.class.html" xlink:title="dr_db2" target="_parent">
<polygon fill="none" stroke="black" points="393.5,-1492 336.5,-1492 336.5,-1456 393.5,-1456 393.5,-1492"/>
<text text-anchor="middle" x="365" y="-1471.2" font-family="Courier,monospace" font-size="11.00">dr_db2</text>
</a>
</g>
<!-- \\dr_db2&#45;&gt;\\dr_structure -->
<g id="edge91" class="edge"><title>\\dr_db2&#45;&gt;\\dr_structure</title>
<path fill="none" stroke="black" d="M336.171,-1467.99C319.684,-1463.68 298.801,-1456.87 282,-1447 218.68,-1409.81 158.864,-1346.71 127.921,-1311.23"/>
<polygon fill="none" stroke="black" points="130.23,-1308.55 121.049,-1303.26 124.928,-1313.12 130.23,-1308.55"/>
</g>
<!-- \\dr_ldap -->
<g id="node54" class="node"><title>\\dr_ldap</title>
<a xlink:href="framework.core.data_access.lib.data_result.dr_ldap.class.html" xlink:title="dr_ldap" target="_parent">
<polygon fill="none" stroke="black" points="397,-1438 333,-1438 333,-1402 397,-1402 397,-1438"/>
<text text-anchor="middle" x="365" y="-1417.2" font-family="Courier,monospace" font-size="11.00">dr_ldap</text>
</a>
</g>
<!-- \\dr_ldap&#45;&gt;\\dr_structure -->
<g id="edge93" class="edge"><title>\\dr_ldap&#45;&gt;\\dr_structure</title>
<path fill="none" stroke="black" d="M332.976,-1411.64C317.354,-1406.97 298.316,-1400.57 282,-1393 229.832,-1368.81 173.94,-1332.53 139.472,-1308.81"/>
<polygon fill="none" stroke="black" points="141.399,-1305.89 131.186,-1303.07 137.41,-1311.64 141.399,-1305.89"/>
</g>
<!-- \\data_trans -->
<g id="node55" class="node"><title>\\data_trans</title>
<a xlink:href="framework.core.data_access.data_trans.class.html" xlink:title="data_trans" target="_parent">
<polygon fill="none" stroke="black" points="407,-250 323,-250 323,-214 407,-214 407,-250"/>
<text text-anchor="middle" x="365" y="-229.2" font-family="Courier,monospace" font-size="11.00">data_trans</text>
</a>
</g>
<!-- \\data_result -->
<g id="node56" class="node"><title>\\data_result</title>
<a xlink:href="framework.core.data_access.data_result.class.html" xlink:title="data_result" target="_parent">
<polygon fill="none" stroke="black" points="410.5,-196 319.5,-196 319.5,-160 410.5,-160 410.5,-196"/>
<text text-anchor="middle" x="365" y="-175.2" font-family="Courier,monospace" font-size="11.00">data_result</text>
</a>
</g>
<!-- \\phplitefw_controller -->
<g id="node57" class="node"><title>\\phplitefw_controller</title>
<a xlink:href="framework.phplitefw.inc.html" xlink:title="phplitefw_controller" target="_parent">
<polygon fill="none" stroke="black" points="441,-142 289,-142 289,-106 441,-106 441,-142"/>
<text text-anchor="middle" x="365" y="-121.2" font-family="Courier,monospace" font-size="11.00">phplitefw_controller</text>
</a>
</g>
</g>
</svg>
